:FULLY-SPECIFIED
:FORCE-ALL-JOINTS-BE-3DOF
:DEGREES
1631
root -15.0228 14.5932 19.3955 699.825 -71.4165 380.433
lfemur 13.2249 -10.9733 -13.4374
ltibia 26.7287 -0 0
lfoot -20.4844 28.1775 -0.000761523
ltoes -43.8066 0 0
rfemur -53.1481 -14.2699 7.41572
rtibia 65.9925 -0 0
rfoot -9.434 10.37 -0.00158962
rtoes 3.04232 -0 0
lowerback 12.9749 4.35581 -7.80434
upperback -0.259521 4.49635 -0.7815
thorax -8.12291 2.46025 2.64434
lowerneck 1.24256 -12.4128 -12.9593
upperneck 3.77715 -17.0693 10.0112
head 2.88723 -8.56822 4.38338
lclavicle 7.95387e-14 -1.31198e-14 0
lhumerus -71.7985 -16.9468 103.96
lradius 104.187 0 0
lwrist 55.6181 0 0
lhand -10.7626 50.7011 0
lfingers 7.12502 0 0
lthumb 15.2491 80.1191 0
rclavicle 7.95387e-14 -1.31198e-14 0
rhumerus 46.8141 -3.70446 -55.3508
rradius 19.4479 0 0
rwrist 22.7942 0 0
rhand -18.6244 -35.9638 0
rfingers 7.12502 0 0
rthumb 7.66766 -65.8048 0
1632
root -15.0357 14.5937 19.4003 700.229 -71.4713 380.015
lfemur 13.4468 -11.0421 -13.4593
ltibia 27.3634 -0 0
lfoot -20.5383 28.2423 -0.00146214
ltoes -43.7833 0 0
rfemur -53.1908 -14.2644 7.48927
rtibia 66.0216 -0 0
rfoot -9.48299 10.399 -0.00167655
rtoes 2.99519 -0 0
lowerback 12.947 4.35756 -7.67367
upperback -0.267123 4.52505 -0.747422
thorax -8.11039 2.47018 2.60355
lowerneck 1.34969 -12.4207 -13.4406
upperneck 3.76361 -17.1379 10.6832
head 2.97473 -8.60319 4.64446
lclavicle -1.29955e-14 -3.57812e-15 0
lhumerus -71.8256 -17.0964 103.919
lradius 104.186 0 0
lwrist 55.4866 0 0
lhand -11.3706 50.4313 0
lfingers 7.12502 0 0
lthumb 14.6635 79.8928 0
rclavicle -1.29955e-14 -3.57812e-15 0
rhumerus 46.7673 -3.76483 -55.4856
rradius 19.4177 0 0
rwrist 22.8564 0 0
rhand -18.5828 -35.499 0
rfingers 7.12502 0 0
rthumb 7.70781 -65.3386 0
1633
root -15.0474 14.592 19.4064 700.371 -71.511 379.855
lfemur 12.916 -11.1171 -13.3849
ltibia 27.998 -0 0
lfoot -20.5922 28.307 -0.00210185
ltoes -43.7599 0 0
rfemur -53.2335 -14.2589 7.56281
rtibia 66.0507 -0 0
rfoot -9.53197 10.4281 -0.00173865
rtoes 2.94806 -0 0
lowerback 12.9396 4.34047 -7.66466
upperback -0.289148 4.50864 -0.697327
thorax -8.13177 2.46472 2.65511
lowerneck 1.27267 -12.5014 -13.1504
upperneck 3.84271 -17.2205 10.3426
head 2.96526 -8.64256 4.49177
lclavicle -4.39066e-14 2.50469e-14 0
lhumerus -71.8651 -17.0028 103.967
lradius 104.122 0 0
lwrist 55.159 0 0
lhand -11.9955 50.0823 0
lfingers 7.12502 0 0
lthumb 14.0613 79.5866 0
rclavicle -4.39066e-14 2.50469e-14 0
rhumerus 46.7003 -3.59207 -55.3785
rradius 19.4672 0 0
rwrist 22.6068 0 0
rhand -18.5593 -34.4664 0
rfingers 7.12502 0 0
rthumb 7.73055 -64.3051 0
1634
root -15.0506 14.5889 19.4039 700.671 -71.4081 379.645
lfemur 12.3849 -11.1913 -13.3098
ltibia 28.6327 -0 0
lfoot -20.6461 28.3718 -0.00268065
ltoes -43.7365 0 0
rfemur -53.2762 -14.2534 7.63634
rtibia 66.0798 -0 0
rfoot -9.58096 10.4571 -0.00177591
rtoes 2.90093 -0 0
lowerback 12.9721 4.29215 -7.71634
upperback -0.357169 4.43358 -0.67343
thorax -8.22223 2.43553 2.72051
lowerneck 1.21641 -12.6387 -12.6357
upperneck 3.7891 -17.3639 9.86461
head 2.88745 -8.71141 4.27119
lclavicle 7.55879e-14 -4.77083e-15 0
lhumerus -71.8693 -17.026 103.911
lradius 104.108 0 0
lwrist 54.8021 0 0
lhand -12.518 49.6291 0
lfingers 7.12502 0 0
lthumb 13.5578 79.1677 0
rclavicle 7.55879e-14 -4.77083e-15 0
rhumerus 46.6513 -3.45999 -55.2903
rradius 19.4745 0 0
rwrist 22.3162 0 0
rhand -18.3478 -35.3204 0
rfingers 7.12502 0 0
rthumb 7.93464 -65.1515 0
1635
root -15.0394 14.5819 19.3733 701.836 -71.0269 378.867
lfemur 11.8536 -11.2649 -13.234
ltibia 29.2674 -0 0
lfoot -20.7 28.4366 -0.00319854
ltoes -43.7132 0 0
rfemur -53.3189 -14.2477 7.70987
rtibia 66.1089 -0 0
rfoot -9.62995 10.4862 -0.00178832
rtoes 2.8538 -0 0
lowerback 13.0134 4.14849 -7.99811
upperback -0.573185 4.19939 -0.553875
thorax -8.4871 2.35171 3.04455
lowerneck 1.07494 -12.7199 -12.4319
upperneck 3.89707 -17.4492 9.62543
head 2.91267 -8.75042 4.15473
lclavicle 1.74682e-14 2.14687e-14 0
lhumerus -71.8944 -17.0658 103.92
lradius 104.096 0 0
lwrist 54.5318 0 0
lhand -13.1074 49.2348 0
lfingers 7.12502 0 0
lthumb 12.9896 78.8105 0
rclavicle 1.74682e-14 2.14687e-14 0
rhumerus 46.6907 -3.44075 -55.3702
rradius 19.4016 0 0
rwrist 22.2598 0 0
rhand -18.4092 -34.8177 0
rfingers 7.12502 0 0
rthumb 7.87545 -64.651 0
1636
root -15.0486 14.5795 19.3803 702.032 -71.0473 378.534
lfemur 11.3221 -11.3378 -13.1575
ltibia 29.9021 -0 0
lfoot -20.7539 28.5013 -0.0036555
ltoes -43.6898 0 0
rfemur -53.3616 -14.2421 7.78339
rtibia 66.138 -0 0
rfoot -9.67894 10.5153 -0.00177591
rtoes 2.80667 -0 0
lowerback 13.1066 4.12539 -7.94549
upperback -0.545503 4.17422 -0.494175
thorax -8.50727 2.33857 3.08072
lowerneck 1.1114 -12.7678 -12.5938
upperneck 3.81195 -17.5315 9.91543
head 2.93074 -8.7902 4.2578
lclavicle 1.27843e-13 7.15625e-15 0
lhumerus -71.9536 -17.0911 104.012
lradius 104.128 0 0
lwrist 54.4034 0 0
lhand -13.8773 48.841 0
lfingers 7.12502 0 0
lthumb 12.2474 78.4624 0
rclavicle 1.27843e-13 7.15625e-15 0
rhumerus 46.7582 -3.52206 -55.5501
rradius 19.2836 0 0
rwrist 22.325 0 0
rhand -18.112 -34.7293 0
rfingers 7.12502 0 0
rthumb 8.16222 -64.5517 0
1637
root -15.0756 14.5811 19.4191 701.765 -71.4537 378.489
lfemur 10.7903 -11.4101 -13.0802
ltibia 30.5368 -0 0
lfoot -20.8078 28.5661 -0.00405154
ltoes -43.6665 0 0
rfemur -53.4043 -14.2363 7.85691
rtibia 66.1671 -0 0
rfoot -9.72793 10.5443 -0.00173865
rtoes 2.75954 -0 0
lowerback 12.9497 4.169 -7.59602
upperback -0.379569 4.3092 -0.47605
thorax -8.22592 2.37784 2.89263
lowerneck 1.27395 -12.756 -12.8669
upperneck 3.59352 -17.5464 10.3317
head 2.90269 -8.80007 4.43121
lclavicle -3.06874e-14 7.95139e-16 0
lhumerus -71.9671 -17.0386 104.063
lradius 104.139 0 0
lwrist 54.3205 0 0
lhand -14.6835 48.4404 0
lfingers 7.12502 0 0
lthumb 11.47 78.1066 0
rclavicle -3.06874e-14 7.95139e-16 0
rhumerus 46.9408 -3.74688 -56.0508
rradius 19.0559 0 0
rwrist 22.8107 0 0
rhand -18.0667 -35.0301 0
rfingers 7.12502 0 0
rthumb 8.20598 -64.8508 0
1638
root -15.0814 14.5808 19.4252 702.334 -71.4891 377.899
lfemur 10.2583 -11.4815 -13.0023
ltibia 31.1714 -0 0
lfoot -20.8617 28.6308 -0.00438666
ltoes -43.6431 0 0
rfemur -53.447 -14.2306 7.93042
rtibia 66.1962 -0 0
rfoot -9.77691 10.5734 -0.00167655
rtoes 2.71241 -0 0
lowerback 12.9438 4.16649 -7.45686
upperback -0.393185 4.33496 -0.401805
thorax -8.23499 2.38768 2.88887
lowerneck 1.32777 -12.8681 -13.008
upperneck 3.53575 -17.7115 10.5039
head 2.92392 -8.88282 4.49077
lclavicle 4.83544e-14 1.23246e-14 0
lhumerus -72.026 -17.179 104.203
lradius 104.135 0 0
lwrist 54.2085 0 0
lhand -15.4761 48.1451 0
lfingers 7.12502 0 0
lthumb 10.7055 77.8523 0
rclavicle 4.83544e-14 1.23246e-14 0
rhumerus 46.9859 -4.06296 -56.3719
rradius 18.8886 0 0
rwrist 23.1905 0 0
rhand -18.0429 -35.0179 0
rfingers 7.12502 0 0
rthumb 8.22897 -64.8377 0
1639
root -15.0868 14.5763 19.4314 702.606 -71.5483 377.63
lfemur 9.72611 -11.5523 -12.9237
ltibia 31.8061 -0 0
lfoot -20.9157 28.6956 -0.00466084
ltoes -43.4787 0 0
rfemur -53.4896 -14.2247 8.00392
rtibia 66.2253 -0 0
rfoot -9.8259 10.6024 -0.00158962
rtoes 2.66528 -0 0
lowerback 12.9107 4.14147 -7.47073
upperback -0.399566 4.30773 -0.345624
thorax -8.22569 2.37695 2.96438
lowerneck 1.31412 -13.0026 -12.5599
upperneck 3.3922 -17.8507 10.0578
head 2.81815 -8.95117 4.29621
lclavicle 8.51295e-14 -2.26615e-14 0
lhumerus -72.075 -17.2288 104.333
lradius 104.184 0 0
lwrist 54.7366 0 0
lhand -16.6163 47.9989 0
lfingers 7.12502 0 0
lthumb 9.60554 77.7599 0
rclavicle 8.51295e-14 -2.26615e-14 0
rhumerus 46.9132 -3.82012 -56.0554
rradius 19.0208 0 0
rwrist 22.798 0 0
rhand -17.8474 -35.077 0
rfingers 7.12502 0 0
rthumb 8.41762 -64.8893 0
1640
root -15.0685 14.5687 19.4036 703.802 -71.1856 376.897
lfemur 9.19364 -11.6224 -12.8444
ltibia 32.4408 -0 0
lfoot -20.9696 28.7603 -0.0048741
ltoes -43.3142 0 0
rfemur -53.5323 -14.2189 8.07742
rtibia 66.2544 0 0
rfoot -9.87489 10.6315 -0.00147784
rtoes 2.61815 -0 0
lowerback 12.8956 3.9999 -7.73539
upperback -0.638067 4.08229 -0.253127
thorax -8.47912 2.29647 3.25134
lowerneck 1.45021 -13.0448 -12.7999
upperneck 3.25104 -17.9361 10.4045
head 2.81735 -8.99614 4.4342
lclavicle 2.66868e-14 -2.54444e-14 0
lhumerus -72.1272 -17.2747 104.426
lradius 104.164 0 0
lwrist 54.965 0 0
lhand -17.6172 48.0063 0
lfingers 7.12502 0 0
lthumb 8.63977 77.8095 0
rclavicle 2.66868e-14 -2.54444e-14 0
rhumerus 46.9683 -3.99663 -56.3339
rradius 18.9388 0 0
rwrist 23.0003 0 0
rhand -17.7797 -35.1135 0
rfingers 7.12502 0 0
rthumb 8.48297 -64.9231 0
1641
root -15.069 14.564 19.4133 704.149 -71.2184 376.606
lfemur 8.66095 -11.6917 -12.7644
ltibia 33.0755 -0 0
lfoot -21.0235 28.8251 -0.00502643
ltoes -43.1498 0 0
rfemur -53.5749 -14.2129 8.15091
rtibia 65.9614 -0 0
rfoot -9.92388 10.6605 -0.00134123
rtoes 2.57102 0 0
lowerback 12.8441 3.98106 -7.66079
upperback -0.665505 4.07509 -0.233699
thorax -8.4745 2.29144 3.234
lowerneck 1.47926 -13.1175 -12.8438
upperneck 3.15927 -18.0424 10.5794
head 2.81786 -9.0483 4.48605
lclavicle 3.23522e-14 -3.57812e-15 0
lhumerus -72.1721 -17.3756 104.534
lradius 104.133 0 0
lwrist 55.108 0 0
lhand -18.3923 47.806 0
lfingers 7.12502 0 0
lthumb 7.89172 77.6387 0
rclavicle 3.23522e-14 -3.57812e-15 0
rhumerus 46.9563 -4.19189 -56.5199
rradius 18.9341 0 0
rwrist 23.0872 0 0
rhand -17.7109 -34.8587 0
rfingers 7.12502 0 0
rthumb 8.54937 -64.6656 0
